<svg width="28" height="26" viewBox="0 0 28 26" fill="none" xmlns="http://www.w3.org/2000/svg">
<path d="M12 13L16.5 8.5L18 10L13.5 14.5H12V13Z" fill="black"/>
<path d="M18.5 9.5L17 8L18 7L19.5 8.5L18.5 9.5Z" fill="black"/>
<path fill-rule="evenodd" clip-rule="evenodd" d="M15.7273 7H10C8.34315 7 7 8.34315 7 10V16C7 17.6569 8.34315 19 10 19H16C17.6569 19 19 17.6569 19 16V11.3636L17.5 12.8636V16C17.5 16.8284 16.8284 17.5 16 17.5H10C9.17157 17.5 8.5 16.8284 8.5 16V10C8.5 9.17157 9.17157 8.5 10 8.5H14.2273L15.7273 7Z" fill="black"/>
</svg>
