<svg width="14" height="12" viewBox="0 0 14 12" fill="none" xmlns="http://www.w3.org/2000/svg">
<path d="M3.02 6.02c.61.28 1.07.9 1.07 1.58.11.85-.05 1.72.12 2.57.27.54 1 .28 1.43.55.49.24.48 1.01-.06 1.18-.56.22-1.18.08-1.74-.05-.71-.2-1.41-.72-1.5-1.5-.18-.89.01-1.8-.16-2.68-.22-.64-.94-.9-1.57-.93-.58-.1-.83-.94-.35-1.3.51-.35 1.26-.14 1.69-.66.44-.48.29-1.18.32-1.78 0-.81-.02-1.77.65-2.34.66-.54 1.58-.71 2.41-.63.63 0 .98.87.4 1.22-.44.37-1.2.06-1.51.65-.14.56-.05 1.15-.07 1.73-.01.75-.05 1.64-.72 2.13-.12.1-.26.19-.4.26M11 6.02c-.67-.3-1.08-1.02-1.08-1.75-.07-.76.03-1.52-.06-2.28-.24-.58-.98-.4-1.46-.59-.59-.24-.48-1.18.14-1.31.73-.15 1.52-.01 2.18.32.56.28.95.86.99 1.48.13.83-.03 1.68.13 2.5.2.68.94.83 1.54.9.56.07.86.8.46 1.21-.44.46-1.2.2-1.65.66-.51.46-.4 1.21-.4 1.83-.03.78.06 1.69-.52 2.3-.74.65-1.8.86-2.75.68-.52-.16-.69-1.01-.15-1.25.44-.23 1.02-.08 1.41-.45.26-.45.09-.98.14-1.47.01-.76-.07-1.63.43-2.26.18-.21.42-.37.66-.51" fill="black"/>
</svg>
